<svg xmlns="http://www.w3.org/2000/svg" viewBox="0 0 100 100" width="100" height="100">
    <!-- Background Circle -->
    <circle cx="50" cy="50" r="48" fill="rgba(255, 255, 255, 0.04)" stroke="rgba(255,255,255,0.08)" stroke-width="2"/>
    
    <!-- Body -->
    <rect x="25" y="22" width="50" height="52" rx="25" fill="#facc15"/>
    
    <!-- Overalls -->
    <path d="M 25 55 L 75 55 L 75 72 C 75 73.5 73.5 74 72 74 L 28 74 C 26.5 74 25 73.5 25 72 Z" fill="#2563eb"/>
    <!-- Strap Left -->
    <path d="M 25 50 L 37 55 L 34 58 L 25 52 Z" fill="#2563eb"/>
    <!-- Strap Right -->
    <path d="M 75 50 L 63 55 L 66 58 L 75 52 Z" fill="#2563eb"/>
    
    <!-- Hair -->
    
        <!-- Flat parted hair -->
        <path d="M 50 15 C 45 12 35 12 30 15" stroke="#1e293b" stroke-width="2" fill="none"/>
        <path d="M 50 15 C 55 12 65 12 70 15" stroke="#1e293b" stroke-width="2" fill="none"/>
        <path d="M 50 15 C 45 10 32 10 25 15" stroke="#1e293b" stroke-width="2" fill="none"/>
        <path d="M 50 15 C 55 10 68 10 75 15" stroke="#1e293b" stroke-width="2" fill="none"/>
      
    
    <!-- Eyes / Goggles -->
    
        <!-- Left eye -->
        <circle cx="39" cy="40" r="11" fill="#fff" stroke="#94a3b8" stroke-width="2.5"/>
        <path d="M 29 34 L 49 37" stroke="#1e293b" stroke-width="3" stroke-linecap="round"/>
        <circle cx="39" cy="40" r="3.5" fill="#78350f"/>
        <!-- Right eye -->
        <circle cx="61" cy="40" r="11" fill="#fff" stroke="#94a3b8" stroke-width="2.5"/>
        <path d="M 71 34 L 51 37" stroke="#1e293b" stroke-width="3" stroke-linecap="round"/>
        <circle cx="61" cy="40" r="3.5" fill="#78350f"/>
        <!-- Goggle strap -->
        <rect x="5" y="36" width="90" height="8" rx="2" fill="#1e293b"/>
      
    
    <!-- Mouth -->
    <path d="M 38 60 Q 50 66 62 60" stroke="#1e293b" stroke-width="3.5" fill="none" stroke-linecap="round"/>

    <!-- Extra Decorations (Crown, etc.) -->
    
  </svg>