<svg xmlns="http://www.w3.org/2000/svg" viewBox="0 0 100 100" width="100" height="100">
    <!-- Background Circle -->
    <circle cx="50" cy="50" r="48" fill="rgba(255, 255, 255, 0.04)" stroke="rgba(255,255,255,0.08)" stroke-width="2"/>
    
    <!-- Body -->
    <rect x="25" y="22" width="50" height="52" rx="25" fill="#a855f7"/>
    
    <!-- Overalls -->
    <path d="M 25 55 L 75 55 L 75 72 C 75 73.5 73.5 74 72 74 L 28 74 C 26.5 74 25 73.5 25 72 Z" fill="#1e1b4b"/>
    <!-- Strap Left -->
    <path d="M 25 50 L 37 55 L 34 58 L 25 52 Z" fill="#1e1b4b"/>
    <!-- Strap Right -->
    <path d="M 75 50 L 63 55 L 66 58 L 75 52 Z" fill="#1e1b4b"/>
    
    <!-- Hair -->
    
        <!-- Crazy wild purple hair -->
        <path d="M 50 15 Q 60 -10 75 0" stroke="#a855f7" stroke-width="5" fill="none" stroke-linecap="round"/>
        <path d="M 45 15 Q 30 -5 15 10" stroke="#a855f7" stroke-width="4.5" fill="none" stroke-linecap="round"/>
        <path d="M 52 15 Q 48 -15 35 -5" stroke="#a855f7" stroke-width="5" fill="none" stroke-linecap="round"/>
        <path d="M 55 15 Q 70 -12 58 -10" stroke="#a855f7" stroke-width="4" fill="none" stroke-linecap="round"/>
      
    
    <!-- Eyes / Goggles -->
    
        <!-- Goggle strap -->
        <rect x="5" y="36" width="90" height="10" rx="2" fill="#0f172a"/>
        <!-- One big eye -->
        <circle cx="50" cy="40" r="16" fill="#fecdd3" stroke="#475569" stroke-width="4"/>
        <circle cx="50" cy="40" r="6" fill="#991b1b"/>
      
    
    <!-- Mouth -->
    
        <!-- Angry mouth with underbite teeth -->
        <path d="M 35 65 Q 50 55 65 65" stroke="#0f172a" stroke-width="4.5" fill="none"/>
        <path d="M 40 63 L 42 57 L 44 63 Z" fill="#fff" stroke="#0f172a"/>
        <path d="M 46 62 L 49 55 L 52 62 Z" fill="#fff" stroke="#0f172a"/>
        <path d="M 54 63 L 57 57 L 60 63 Z" fill="#fff" stroke="#0f172a"/>
      

    <!-- Extra Decorations (Crown, etc.) -->
    
  </svg>